<svg xmlns="http://www.w3.org/2000/svg" aria-hidden="true" style="position:absolute;width:0;height:0;overflow:hidden">
    <defs>
        <symbol id="call" viewBox="0 0 32 32">
            <path stroke-miterlimit="10" stroke-width="1.846"
                d="M29.293 24.44c0 .48-.107.973-.333 1.453s-.52.933-.907 1.36c-.653.72-1.373 1.24-2.187 1.573-.8.333-1.667.507-2.6.507-1.36 0-2.813-.32-4.347-.973s-3.067-1.533-4.587-2.64a38.332 38.332 0 0 1-4.373-3.733 37.98 37.98 0 0 1-3.72-4.36c-1.093-1.52-1.973-3.04-2.613-4.547-.64-1.52-.96-2.973-.96-4.36 0-.907.16-1.773.48-2.573.32-.813.827-1.56 1.533-2.227.853-.84 1.787-1.253 2.773-1.253.373 0 .747.08 1.08.24.347.16.653.4.893.747l3.093 4.36c.24.333.413.64.533.933.12.28.187.56.187.813 0 .32-.093.64-.28.947a4.52 4.52 0 0 1-.747.947l-1.013 1.053a.712.712 0 0 0-.213.533c0 .107.013.2.04.307.04.107.08.187.107.267.24.44.653 1.013 1.24 1.707.6.693 1.24 1.4 1.933 2.107.72.707 1.413 1.36 2.12 1.96.693.587 1.267.987 1.72 1.227.067.027.147.067.24.107a.92.92 0 0 0 .333.053c.227 0 .4-.08.547-.227l1.013-1c.333-.333.653-.587.96-.747.307-.187.613-.28.947-.28.253 0 .52.053.813.173s.6.293.933.52l4.413 3.133c.347.24.587.52.733.853.133.333.213.667.213 1.04z" />
        </symbol>
        <symbol id="dioganal-arrow" viewBox="0 0 32 32">
            <path stroke-linecap="round" stroke-width="3.692"
                d="m2.461 2.901 27.076 26.198M9.231 29.099h20.308M29.538 29.099v-18.67" />
        </symbol>
        <symbol id="down-arrow" viewBox="0 0 6 32">
            <path
                d="M3.091.364a.182.182 0 0 0-.364 0h.364zm-.182 27.757a.97.97 0 1 0 0 1.94.97.97 0 0 0 0-1.94zM2.727.364v28.727h.364V.364h-.364z" />
            <path stroke-width=".364" d="M5.636 29.091a2.727 2.727 0 1 1-5.454 0 2.727 2.727 0 0 1 5.454 0z" />
        </symbol>
        <symbol id="facebook" viewBox="0 0 32 32">
            <path
                d="M32 16c0-8.8-7.2-16-16-16S0 7.2 0 16c0 8 5.8 14.6 13.4 15.8V20.6h-4V16h4v-3.6c0-4 2.4-6.2 6-6.2 1.8 0 3.6.4 3.6.4v4h-2c-2 0-2.6 1.2-2.6 2.4v3h4.4l-.8 4.6h-3.8V32c8-1.2 13.8-8 13.8-16z" />
        </symbol>
        <symbol id="fill-star" viewBox="0 0 32 32">
            <path
                d="m32 12.363-11.627-.764L15.994.598l-4.379 11.001L0 12.363l8.908 7.564-2.923 11.474 10.008-6.326 10.009 6.326-2.923-11.474L32 12.363z" />
        </symbol>
        <symbol id="gmail" viewBox="0 0 31 32">
            <path stroke-linecap="round" stroke-linejoin="round" stroke-width="1.333"
                d="M5.133 5.333h19.971c1.373 0 2.496 1.2 2.496 2.667v16c0 1.467-1.123 2.667-2.496 2.667H5.133c-1.373 0-2.496-1.2-2.496-2.667V8c0-1.467 1.123-2.667 2.496-2.667z" />
            <path stroke-linecap="round" stroke-linejoin="round" stroke-width="1.333"
                d="m27.6 8-12.482 9.333L2.636 8" />
        </symbol>
        <symbol id="instagram" viewBox="0 0 32 32">
            <path
                d="M16 3.911h6.044c1.422 0 2.133.356 2.667.533.711.356 1.244.533 1.778 1.067s.889 1.067 1.067 1.778c.178.533.356 1.244.533 2.667v12.088c0 1.422-.356 2.133-.533 2.667-.356.711-.533 1.244-1.067 1.778s-1.067.889-1.778 1.067c-.533.178-1.244.356-2.667.533H9.956c-1.422 0-2.133-.356-2.667-.533-.711-.356-1.244-.533-1.778-1.067s-.889-1.067-1.067-1.778c-.178-.533-.356-1.244-.533-2.667V9.956c0-1.422.356-2.133.533-2.667.356-.711.533-1.244 1.067-1.778s1.067-.889 1.778-1.067c.533-.178 1.244-.356 2.667-.533H16zm0-2.666H9.956c-1.6 0-2.667.356-3.556.711-.889.356-1.778.889-2.667 1.778s-1.244 1.6-1.778 2.667c-.356.889-.533 1.956-.711 3.556v12.088c0 1.6.356 2.667.711 3.556.356.889.889 1.778 1.778 2.667s1.6 1.244 2.667 1.778c.889.356 1.956.533 3.556.711h12.088c1.6 0 2.667-.356 3.556-.711s1.778-.889 2.667-1.778c.889-.889 1.244-1.6 1.778-2.667.356-.889.533-1.956.711-3.556V9.957c0-1.6-.356-2.667-.711-3.556s-.889-1.778-1.778-2.667c-.889-.889-1.6-1.244-2.667-1.778-.889-.356-1.956-.533-3.556-.711H16z" />
            <path
                d="M16 8.356c-4.267 0-7.644 3.378-7.644 7.644s3.378 7.644 7.644 7.644c4.267 0 7.644-3.378 7.644-7.644S20.266 8.356 16 8.356zm0 12.622c-2.667 0-4.978-2.133-4.978-4.978 0-2.667 2.133-4.978 4.978-4.978 2.667 0 4.978 2.133 4.978 4.978 0 2.667-2.311 4.978-4.978 4.978zM23.822 9.956a1.778 1.778 0 1 0 0-3.556 1.778 1.778 0 0 0 0 3.556z" />
        </symbol>
        <symbol id="location" viewBox="0 0 32 32">
            <path stroke-width="1.846" d="M16 17.907a4.16 4.16 0 1 0-.001-8.321A4.16 4.16 0 0 0 16 17.907z" />
            <path stroke-width="1.846"
                d="M4.827 11.32C7.454-.227 24.56-.213 27.174 11.333c1.533 6.773-2.68 12.507-6.373 16.053a6.924 6.924 0 0 1-9.613 0c-3.68-3.547-7.893-9.293-6.36-16.067z" />
        </symbol>
        <symbol id="menu-burger" viewBox="0 0 81 32">
            <path stroke-linecap="round" stroke-width="1.882"
                d="M1.882 1.882h77.176M1.882 16h77.176M1.882 31.059h77.176" />
        </symbol>
        <symbol id="ok" viewBox="0 0 19 32">
            <path
                d="M17.402 8.752c0 4.271-3.482 7.752-7.753 7.752-4.317 0-7.799-3.482-7.799-7.752S5.332 1 9.649 1c4.271 0 7.753 3.482 7.753 7.752zm-4.549 0A3.21 3.21 0 0 0 9.65 5.549c-1.81 0-3.249 1.439-3.203 3.203 0 1.764 1.439 3.203 3.203 3.203s3.203-1.439 3.203-3.203zM17.263 21.008c-1.393.882-2.925 1.485-4.503 1.857l4.41 4.271c.882.882.882 2.321 0 3.203s-2.321.882-3.203 0l-4.271-4.271-4.271 4.271c-.464.418-1.021.65-1.625.65s-1.161-.186-1.625-.65a2.27 2.27 0 0 1 0-3.203l4.317-4.317c-1.578-.371-3.11-.975-4.503-1.857-1.068-.65-1.393-2.042-.789-3.11.696-1.068 2.089-1.346 3.157-.696 3.157 1.996 7.288 1.996 10.445 0 1.068-.696 2.507-.371 3.157.696.696 1.068.371 2.507-.696 3.157z" />
        </symbol>
        <symbol id="right-arrow" viewBox="0 0 84 32">
            <path
                d="M2 15a1 1 0 0 0 0 2v-2zm60.667 1a5.333 5.333 0 1 0 10.666 0 5.333 5.333 0 0 0-10.666 0zM2 17h66v-2H2v2z" />
            <path stroke-width="2"
                d="M83 16c0 8.284-6.716 15-15 15s-15-6.716-15-15c0-8.284 6.716-15 15-15s15 6.716 15 15z" />
        </symbol>
        <symbol id="stroke-star" viewBox="0 0 32 32">
            <path
                d="m32 11.765-11.621-.764L16 0l-4.379 11.001L0 11.765l8.916 7.558-2.925 11.48L16 24.477l10.009 6.326-2.925-11.479L32 11.765zM16 22.259l-7.029 4.442 2.052-8.052-6.283-5.318 8.186-.538 3.075-7.725 3.075 7.725 8.195.538-6.293 5.317L23.03 26.7l-7.029-4.442z" />
        </symbol>
        <symbol id="telegram" viewBox="0 0 37 32">
            <path
                d="M2.514 13.048c9.817-4.277 16.363-7.097 19.639-8.459C31.505.699 33.448.023 34.715.001c.278-.005.901.064 1.305.392.341.276.434.65.479.912s.101.859.056 1.326c-.507 5.325-2.7 18.247-3.815 24.211-.472 2.524-1.402 3.37-2.302 3.453-1.955.18-3.44-1.292-5.335-2.534-2.964-1.943-4.638-3.152-7.515-5.048-3.325-2.191-1.169-3.395.725-5.363.496-.515 9.112-8.352 9.279-9.063.021-.089.04-.42-.157-.595s-.488-.115-.697-.068c-.297.067-5.032 3.197-14.204 9.389-1.344.923-2.561 1.372-3.652 1.349-1.202-.026-3.515-.68-5.235-1.239-2.109-.686-3.785-1.048-3.639-2.212.076-.606.911-1.227 2.505-1.861z" />
        </symbol>
        <symbol id="whatsapp" viewBox="0 0 32 32">
            <path
                d="M27.2 4.6c-3-3-7-4.6-11.2-4.6C7.2 0 0 7.2 0 16c0 2.8.8 5.6 2.2 8L0 32l8.4-2.2c2.4 1.2 5 2 7.6 2 8.8 0 16-7.2 16-16 0-4.2-1.8-8.2-4.8-11.2zM16 29.2c-2.4 0-4.8-.6-6.8-1.8l-.4-.2-5 1.4 1.4-4.8-.4-.6c-1.4-2.2-2-4.6-2-7C2.8 9 8.8 3 16 3c3.6 0 6.8 1.4 9.4 3.8 2.6 2.6 3.8 5.8 3.8 9.4 0 7-5.8 13-13.2 13zm7.2-10c-.4-.2-2.4-1.2-2.8-1.2-.4-.2-.6-.2-.8.2s-1 1.2-1.2 1.6c-.2.2-.4.2-.8.2-.4-.2-1.6-.6-3.2-2-1.2-1-2-2.4-2.2-2.8s0-.6.2-.8l.6-.6c.2-.2.2-.4.4-.6.2-.2 0-.4 0-.6s-.8-2.2-1.2-3c-.2-.6-.6-.6-.8-.6h-.8c-.2 0-.6 0-1 .4s-1.4 1.4-1.4 3.4 1.4 3.8 1.6 4.2c.2.2 2.8 4.4 6.8 6 3.4 1.4 4 1 4.8 1s2.4-1 2.6-1.8c.4-1 .4-1.8.2-1.8-.2-1-.6-1-1-1.2z" />
        </symbol>
        <symbol id="wk" viewBox="0 0 47 32">
            <path
                d="M25.651 29.974c-15.565 0-24.439-10.65-24.804-28.399h7.828c.25 13.016 5.985 18.523 10.536 19.661V1.575h7.35v11.218c4.483-.478 9.216-5.598 10.809-11.241h7.327a21.677 21.677 0 0 1-9.967 14.177 22.456 22.456 0 0 1 11.674 14.245h-8.078c-1.729-5.393-6.053-9.58-11.764-10.149v10.149h-.91z" />
        </symbol>
        <symbol id="arrow-slider" viewBox="0 0 17 32">
            <path
                d="M15.854 2.802c0-.873-.377-1.26-.582-1.455a1.975 1.975 0 0 0-2.182-.291 3.35 3.35 0 0 0-.436.291l-11.2 11.2S0 14.002 0 16.183s1.454 3.636 1.454 3.636l10.909 10.909s.419.389.727.582c1.164.727 2.803-.23 2.764-1.745-.018-.673-.436-1.164-.436-1.164L4.655 17.637s-.873-.727-.873-1.455.873-1.455.873-1.455L15.418 3.963s.436-.436.436-1.164z" />
        </symbol>
    </defs>
</svg>