<svg xmlns="http://www.w3.org/2000/svg" width="36" height="31" viewBox="0 0 36 31" fill="none">
  <mask id="mask0_9119_3850" style="mask-type:luminance" maskUnits="userSpaceOnUse" x="0" y="0" width="21" height="27">
    <path d="M3.51513 3.21853C1.65496 4.95726 0.711182 7.17287 0.711182 9.80909C0.711182 11.9967 1.34971 14.044 2.59899 15.923C3.68171 17.5216 5.56826 19.5689 8.42774 22.1771L12.8684 26.3839C13.6735 27.0009 14.8395 26.8607 15.478 26.1316C16.172 25.3463 16.1165 24.1403 15.367 23.4111C13.0627 21.3077 13.4236 21.6163 11.1206 19.5129C8.73311 17.3534 7.0674 15.5304 6.15126 14.072C5.29064 12.7259 4.84644 11.3236 4.84644 9.92131C4.84644 8.29466 5.40168 7.00466 6.51216 5.96697C7.67816 4.90128 9.01073 4.39643 10.6487 4.39643C12.2576 4.39643 13.729 4.81706 14.9783 5.65843C15.7556 6.2194 16.5607 6.97655 17.3936 7.95814C17.3936 7.95814 17.3936 7.95814 17.3658 7.95814C17.5879 8.26667 17.9766 8.85562 18.1431 9.72499C18.3375 10.8468 18.0043 11.7443 17.8378 12.0808C18.4763 12.0808 19.3634 11.7723 20.0852 10.987C20.807 10.1737 21.7232 7.17286 19.7521 4.81706C19.2524 4.2281 18.7539 3.52706 17.1992 2.48936C15.3392 1.25535 13.035 0.610291 10.4266 0.610291C7.70593 0.610291 5.37392 1.50778 3.51513 3.21853Z" fill="white"/>
  </mask>
  <g mask="url(#mask0_9119_3850)">
    <path d="M21.7509 0.610291L0.711182 0.610291L0.711182 26.9728H21.7509V0.610291Z" fill="url(#paint0_linear_9119_3850)"/>
  </g>
  <mask id="mask1_9119_3850" style="mask-type:luminance" maskUnits="userSpaceOnUse" x="0" y="0" width="21" height="13">
    <path d="M3.51513 3.21853C1.65496 4.95726 0.711182 7.17287 0.711182 9.80909C0.711182 10.7627 0.822233 11.6882 1.07209 12.5857C1.15538 11.6041 1.43286 9.92131 2.57123 8.26667C5.23511 4.42442 10.1212 4.39643 10.6487 4.39643C12.2576 4.39643 13.729 4.81706 14.9783 5.65844C15.7556 6.2194 16.5607 6.97655 17.3936 7.95814C17.3936 7.95814 17.3936 7.95814 17.3658 7.95814C17.5879 8.26667 17.9766 8.85562 18.1431 9.72499C18.3375 10.8468 18.0043 11.7443 17.8378 12.0808C18.4763 12.0808 19.3634 11.7723 20.0852 10.987C20.807 10.1737 21.7232 7.17287 19.7521 4.81706C19.2524 4.2281 18.7539 3.52706 17.1992 2.48936C15.3392 1.25535 13.035 0.610291 10.4266 0.610291C7.70593 0.610291 5.37392 1.50778 3.51513 3.21853Z" fill="white"/>
  </mask>
  <g mask="url(#mask1_9119_3850)">
    <path d="M21.7509 0.610291L0.711182 0.610291L0.711182 12.5857L21.7509 12.5857V0.610291Z" fill="url(#paint1_linear_9119_3850)"/>
  </g>
  <mask id="mask2_9119_3850" style="mask-type:luminance" maskUnits="userSpaceOnUse" x="14" y="0" width="22" height="31">
    <path d="M25.3032 0.610291C22.6658 0.610291 20.3906 1.22723 18.5306 2.48936C18.0031 2.85388 17.5867 3.16242 17.2535 3.47095C17.1425 3.55505 17.0314 3.66727 16.9482 3.75137C16.5317 4.144 16.2541 4.50865 16.0042 4.81706C14.0344 7.14487 14.9228 10.1737 15.6711 10.987C16.3929 11.7723 17.2813 12.0808 17.9198 12.0808C17.781 11.7443 17.4201 10.8468 17.6144 9.72499C17.7532 8.85562 18.1697 8.26667 18.3918 7.95814C19.1969 6.97655 20.002 6.19128 20.8071 5.65844C22.0563 4.81706 23.5265 4.39643 25.1366 4.39643C26.7468 4.39643 28.1072 4.90128 29.2732 5.96697C30.4101 7.00467 30.9376 8.29466 30.9376 9.92131C30.9376 11.2955 30.4934 12.6979 29.6341 14.0721C28.7179 15.5023 27.0522 17.3253 24.6647 19.5129L16.6705 27.5618C16.6705 27.5618 16.6705 27.5618 16.6428 27.5899C16.3096 27.9264 16.0875 28.4031 16.0875 28.936C16.0875 30.0018 16.9481 30.8712 18.0031 30.8712C18.5028 30.8712 18.9748 30.6748 19.3079 30.3383L19.3357 30.3102L19.3634 30.2822L27.3576 22.2052C30.2158 19.597 32.1036 17.5497 33.1863 15.951C34.4356 14.0721 35.0742 11.9967 35.0742 9.83721C35.0742 7.20098 34.1302 4.98538 32.2702 3.24652C30.3824 1.50778 28.0517 0.610291 25.3032 0.610291Z" fill="white"/>
  </mask>
  <g mask="url(#mask2_9119_3850)">
    <path d="M4.40234 4.172L16.4775 37.6862L44.6508 27.3093L32.5756 -6.20474L4.40234 4.172Z" fill="url(#paint2_linear_9119_3850)"/>
  </g>
  <defs>
    <linearGradient id="paint0_linear_9119_3850" x1="0.688846" y1="13.8107" x2="20.9307" y2="13.8107" gradientUnits="userSpaceOnUse">
      <stop stop-color="#871719"/>
      <stop offset="0.45" stop-color="#DA1F26"/>
      <stop offset="1" stop-color="#F0564B"/>
    </linearGradient>
    <linearGradient id="paint1_linear_9119_3850" x1="0.688846" y1="6.63082" x2="20.9307" y2="6.63082" gradientUnits="userSpaceOnUse">
      <stop stop-color="#F0564B"/>
      <stop offset="0.55" stop-color="#DA1F26"/>
      <stop offset="1" stop-color="#871719"/>
    </linearGradient>
    <linearGradient id="paint2_linear_9119_3850" x1="19.4909" y1="1.82741" x2="28.7752" y2="27.0743" gradientUnits="userSpaceOnUse">
      <stop stop-color="#EC1C24"/>
      <stop offset="0.1279" stop-color="#EC1C24"/>
      <stop offset="0.204" stop-color="#CB2037"/>
      <stop offset="0.5673" stop-color="#2E3191"/>
      <stop offset="1" stop-color="#2E3191"/>
    </linearGradient>
  </defs>
</svg>